HIERARCHY
ROOT pelvis
{
  OFFSET 0 100 0
  CHANNELS 6 Xposition Yposition Zposition Zrotation Xrotation Yrotation
  JOINT pelvis_right_femur
  {
    OFFSET -10.78128 -3.44521 -0.5502486
    CHANNELS 3 Zrotation Xrotation Yrotation
    JOINT right_femur_tibia
    {
      OFFSET -0.8047443 -44.0398 -0.1307829
      CHANNELS 3 Zrotation Xrotation Yrotation
      JOINT right_tibia_foot
      {
        OFFSET 3.006224 -47.83518 -5
        CHANNELS 3 Zrotation Xrotation Yrotation
        End Site
        {
          OFFSET 0 -5 15
        }
      }
    }
  }
  JOINT pelvis_left_femur
  {
    OFFSET 10.78128 -3.44521 -0.5502486
    CHANNELS 3 Zrotation Xrotation Yrotation
    JOINT left_femur_tibia
    {
      OFFSET 0.8047443 -44.0398 -0.1307829
      CHANNELS 3 Zrotation Xrotation Yrotation
      JOINT left_tibia_foot
      {
        OFFSET -4.370144 -48.10324 -4.275266
        CHANNELS 3 Zrotation Xrotation Yrotation
        End Site
        {
          OFFSET 0 -5 15
        }
      }
    }
  }
  JOINT pelvis_spine1
  {
    OFFSET 0 6.468898 -3.129235
    CHANNELS 3 Zrotation Xrotation Yrotation
    JOINT spine1
    {
      OFFSET 0 23.15396 4.99043
      CHANNELS 3 Zrotation Xrotation Yrotation
      JOINT spine2
      {
        OFFSET 0 20.79997 -5.064912
        CHANNELS 3 Zrotation Xrotation Yrotation
        JOINT neck
        {
          OFFSET 0 14.38658 9.616178
          CHANNELS 3 Zrotation Xrotation Yrotation
          End Site
          {
            OFFSET 0 20 0
          }
        }
      }
      JOINT right_manubrium
      {
        OFFSET -5.722621 16.35077 3.967754
        CHANNELS 3 Zrotation Xrotation Yrotation
        JOINT right_clavicle
        {
          OFFSET -13.16364 1.694482 -4.693211
          CHANNELS 3 Zrotation Xrotation Yrotation
          JOINT right_humerus
          {
            OFFSET -28.5034 -0.3100689 -2.792744
            CHANNELS 3 Zrotation Xrotation Yrotation
            JOINT right_radius
            {
              OFFSET -25.15693 0.02248979 -1.271978
              CHANNELS 3 Zrotation Xrotation Yrotation
              End Site
              {
                OFFSET -15 0 0
              }
            }
          }
        }
      }
      JOINT left_manubrium
      {
        OFFSET 5.722621 16.35077 3.967754
        CHANNELS 3 Zrotation Xrotation Yrotation
        JOINT left_clavicle
        {
          OFFSET 13.16364 1.694482 -4.693211
          CHANNELS 3 Zrotation Xrotation Yrotation
          JOINT left_humerus
          {
            OFFSET 29.39168 -1.063119 -2.237045
            CHANNELS 3 Zrotation Xrotation Yrotation
            JOINT left_radius
            {
              OFFSET 24.59957 -0.9528479 0.9047498
              CHANNELS 3 Zrotation Xrotation Yrotation
              End Site
              {
                OFFSET 15 -0 -0
              }
            }
          }
        }
      }
    }
  }
}
MOTION
Frames: 9
Frame Time: 0.0416666666667
0 103.5113 0 1.372184 -0.9757782 -0.03443679 2.959391 -14.51604 9.106053 -0 34.31277 -0 -4.367705 -15.83832 -4.695956 -7.22075 11.86263 -24.64712 -0 4.129062 -0 2.234418 -21.27387 24.99992 -4.324801 -3.375228 4.191749 2.766147 8.327583 -8.214483 0.4222701 22.57295 8.421248 4.110515 -24.11527 9.049853 6.972434 -19.81397 11.59532 86.19193 36.96672 -21.90301 -0 0 16.54609 -8.24136 9.232629 5.33025 4.544375 -18.98612 -2.889022 -101.3559 38.87402 29.89198 0 0 -18.31245 -10.22042 15.8034 25.94224
0.2325301 103.2391 1.171525 1.119959 -1.05936 -0.03690128 3.23645 -15.54714 8.915436 -0 34.94242 -0 -4.598668 -15.49543 -4.715154 -7.046285 12.27387 -24.2022 -0 4.308978 -0 2.179721 -21.27486 24.55956 -4.167028 -3.159721 3.9747 2.799228 8.279754 -8.189312 0.5208861 22.63894 8.268 3.883771 -24.22084 9.159826 6.580953 -19.67047 11.52915 86.50247 36.22124 -21.82834 -0 0 16.03638 -8.005971 8.830574 5.218346 4.547914 -19.09831 -2.795098 -100.2871 38.46983 28.7155 0 0 -18.89073 -9.058081 15.9062 24.69412
0.3170978 102.6567 3.485337 0.004109496 -1.669268 0.2414756 3.817822 -23.12555 5.3411 -0 31.91072 -0 -6.597857 -10.39373 -4.580303 -5.84049 15.10831 -20.40994 -0 5.47318 -0 -0.9854455 -23.28484 19.34839 -3.179172 -1.331893 2.50188 2.788418 7.877449 -8.168099 1.018831 23.03001 7.507656 3.286956 -23.8961 8.909222 4.221306 -18.3919 11.00471 88.30787 31.53428 -22.06235 -0 0 12.80896 -9.132849 7.173097 5.601709 4.79669 -20.21883 -3.371787 -94.3182 37.2663 21.85962 0 0 -23.61255 -6.195802 15.56396 21.69738
0.3949337 102.0709 5.87953 -0.1992129 -0.6352322 0.569401 4.24747 -25.5044 5.413042 -0 29.5596 -0 -6.381067 -10.64559 -4.389665 -5.717967 15.68345 -20.93856 -0 4.955564 -0 -1.55443 -24.17556 18.84707 -3.077348 -1.13823 2.556388 2.839394 7.339744 -8.11204 1.171279 22.78314 7.670669 3.429102 -24.40792 9.286067 4.347893 -18.07681 10.78434 88.19447 32.48594 -22.24902 -0 0 12.86768 -8.345969 7.406127 5.201803 5.080235 -20.1178 -2.948502 -94.47368 37.79881 21.90621 0 0 -24.46129 -6.182857 15.79832 21.93806
0.5149731 101.5108 8.414855 -0.6844943 1.919033 1.002035 5.397687 -29.76324 6.144073 -0 25.41583 -0 -5.755538 -10.79644 -3.748196 -5.49216 16.21089 -22.30922 -0 4.023415 -0 -2.679994 -25.48099 17.98399 -2.810117 -0.8848155 2.819255 2.95583 6.359029 -8.010192 1.344829 21.97637 8.254145 3.961138 -25.75549 10.09383 5.115284 -17.60161 10.50496 87.6485 35.31139 -22.48958 -0 0 13.50675 -6.728488 8.28691 4.530092 5.665417 -19.79721 -1.971979 -95.60462 38.55313 23.11345 0 0 -25.24519 -6.099535 16.10185 22.46135
0.6910779 101.0174 11.32617 -1.395203 4.134796 1.58214 6.768743 -33.07256 6.838174 -0 22.58071 -0 -5.574166 -9.501017 -3.039356 -5.077799 16.23402 -22.77944 -0 4.835883 -0 -4.263697 -25.59748 16.40401 -2.206363 -0.5525468 2.874856 3.066286 5.764781 -7.983885 1.364226 21.05983 8.809302 4.503193 -26.99622 10.59792 5.907883 -17.17587 10.4608 87.1935 37.56266 -22.49205 -0 0 13.94042 -5.871806 9.258867 4.423315 6.052855 -19.55206 -1.267231 -96.28727 38.18983 24.06509 0 0 -25.1483 -5.448109 15.89989 22.33543
0.9252868 100.6953 14.91441 -2.336025 5.76717 2.284821 8.285327 -34.98416 7.390462 -0 20.82924 -0 -5.950152 -7.028208 -2.474596 -4.40076 15.73557 -22.06277 -0 8.541415 -0 -6.367183 -23.99349 14.02277 -1.148308 -0.2005442 2.701982 3.180361 5.647339 -8.109735 1.21457 20.09396 9.2188 4.922406 -27.98383 10.64882 6.635607 -16.79853 10.67649 86.97018 38.93888 -22.45545 -0 0 13.97228 -6.040428 10.35368 5.042463 6.083286 -19.40459 -0.9513666 -96.27621 36.70685 24.57428 0 0 -24.32078 -4.538632 15.00768 21.95397
1.199362 100.6095 19.33973 -3.242181 6.319082 2.946533 9.515716 -34.82881 7.555798 -0 20.10548 -0 -6.692908 -4.560493 -2.30143 -3.62944 14.82518 -20.13315 -0 15.48005 -0 -8.235194 -20.67809 11.59684 0.1092569 0.03494121 2.405208 3.312461 6.039019 -8.407565 0.9388426 19.38464 9.290295 4.976996 -28.4259 10.19458 7.039419 -16.48023 11.07554 87.17689 39.084 -22.59942 -0 0 13.2911 -7.177895 11.28903 6.211172 5.67235 -19.42607 -1.051127 -95.26614 34.43508 24.16941 0 0 -23.41865 -3.486358 13.58479 21.29312
1.482524 100.8315 24.58828 -3.807721 5.746161 3.354732 10.09864 -32.59715 7.154862 -0 19.72722 -0 -7.463689 -3.023643 -2.541697 -2.965605 13.49025 -17.37588 -0 25.16065 -0 -9.455892 -16.34396 9.724493 1.196223 0.1434007 2.184494 3.441089 6.74806 -8.765171 0.636029 19.15178 8.991754 4.67311 -28.15825 9.355433 7.101599 -16.11963 11.50811 87.67427 38.32557 -22.91163 -0 0 11.878 -8.93321 11.93524 7.531758 4.93498 -19.59556 -1.444412 -93.47574 31.95842 22.81226 0 0 -22.89327 -2.461576 12.0098 20.39992
